HIERARCHY
ROOT Bip001_Pelvis
{
  OFFSET 34.4345 95.6767 -26.8758
  CHANNELS 6 Xposition Yposition Zposition Zrotation Xrotation Yrotation
  JOINT Bip001_Spine
  {
    OFFSET 1.4188e-005 10.2191 -0.0116013
    CHANNELS 3 Zrotation Xrotation Yrotation
    JOINT Bip001_L_Thigh
    {
      OFFSET 11.0458 -10.2192 0.0116197
      CHANNELS 3 Zrotation Xrotation Yrotation
      JOINT Bip001_L_Calf
      {
        OFFSET -0.707118 -44.0221 0.360014
        CHANNELS 3 Zrotation Xrotation Yrotation
        JOINT Bip001_L_Foot
        {
          OFFSET -0.651902 -40.5938 -3.56146
          CHANNELS 3 Zrotation Xrotation Yrotation
          JOINT Bip001_L_Toe0
          {
            OFFSET 0.0530839 -10.2181 13.1504
            CHANNELS 3 Zrotation Xrotation Yrotation
            End Site
            {
              OFFSET -1.02532e-005 0 7.55606
            }
          }
        }
      }
    }
    JOINT Bip001_R_Thigh
    {
      OFFSET -11.0458 -10.2191 0.0115893
      CHANNELS 3 Zrotation Xrotation Yrotation
      JOINT Bip001_R_Calf
      {
        OFFSET 0.706994 -44.0221 0.35984
        CHANNELS 3 Zrotation Xrotation Yrotation
        JOINT Bip001_R_Foot
        {
          OFFSET 0.651786 -40.5938 -3.5613
          CHANNELS 3 Zrotation Xrotation Yrotation
          JOINT Bip001_R_Toe0
          {
            OFFSET -0.0531479 -10.2181 13.1504
            CHANNELS 3 Zrotation Xrotation Yrotation
            End Site
            {
              OFFSET -1.02894e-005 0 7.55606
            }
          }
        }
      }
    }
    JOINT Bip001_Spine1
    {
      OFFSET 1.87041e-005 14.5736 1.08638
      CHANNELS 3 Zrotation Xrotation Yrotation
      JOINT Bip001_Spine2
      {
        OFFSET 2.24614e-005 14.5058 -1.69078
        CHANNELS 3 Zrotation Xrotation Yrotation
        JOINT Bip001_Neck
        {
          OFFSET 2.20278e-005 15.3945 -0.489414
          CHANNELS 3 Zrotation Xrotation Yrotation
          JOINT Bip001_L_Clavicle
          {
            OFFSET 6.06036 -0.000579998 0.00836775
            CHANNELS 3 Zrotation Xrotation Yrotation
            JOINT Bip001_L_UpperArm
            {
              OFFSET 11.5509 -0.0600302 0.00193952
              CHANNELS 3 Zrotation Xrotation Yrotation
              JOINT Bip001_L_Forearm
              {
                OFFSET 25.9523 0.0806089 -2.15551
                CHANNELS 3 Zrotation Xrotation Yrotation
                JOINT Bip001_L_Hand
                {
                  OFFSET 32.2475 0.153767 1.63968
                  CHANNELS 3 Zrotation Xrotation Yrotation
                  JOINT Bip001_L_Finger0
                  {
                    OFFSET 6.04639 -2.20976 5.90322
                    CHANNELS 3 Zrotation Xrotation Yrotation
                    End Site
                    {
                      OFFSET 4.22375 -1.43895 0.606485
                    }
                  }
                  JOINT Bip001_L_Finger1
                  {
                    OFFSET 11.0826 -0.704819 -0.198153
                    CHANNELS 3 Zrotation Xrotation Yrotation
                    End Site
                    {
                      OFFSET 6.20027 -0.397518 -0.0787166
                    }
                  }
                }
              }
            }
          }
          JOINT Bip001_R_Clavicle
          {
            OFFSET -6.06037 -0.000563197 0.00835105
            CHANNELS 3 Zrotation Xrotation Yrotation
            JOINT Bip001_R_UpperArm
            {
              OFFSET -11.5509 -0.0599978 0.00190698
              CHANNELS 3 Zrotation Xrotation Yrotation
              JOINT Bip001_R_Forearm
              {
                OFFSET -25.9523 0.0806822 -2.15589
                CHANNELS 3 Zrotation Xrotation Yrotation
                JOINT Bip001_R_Hand
                {
                  OFFSET -32.2475 0.153859 1.63989
                  CHANNELS 3 Zrotation Xrotation Yrotation
                  JOINT Bip001_R_Finger0
                  {
                    OFFSET -6.04641 -2.20976 5.90317
                    CHANNELS 3 Zrotation Xrotation Yrotation
                    End Site
                    {
                      OFFSET -4.22376 -1.43895 0.60647
                    }
                  }
                  JOINT Bip001_R_Finger1
                  {
                    OFFSET -11.0826 -0.704794 -0.198182
                    CHANNELS 3 Zrotation Xrotation Yrotation
                    End Site
                    {
                      OFFSET -6.20028 -0.397504 -0.0787333
                    }
                  }
                }
              }
            }
          }
          JOINT Bip001_Head
          {
            OFFSET 1.09673e-005 11.2744 2.05948
            CHANNELS 3 Zrotation Xrotation Yrotation
            End Site
            {
              OFFSET 2.89576e-005 20.8808 -2.77728e-005
            }
          }
        }
      }
    }
  }
}
MOTION
Frames:	13
Frame Time:	0.04
33.0208 95.9626 -29.194 0.794554 -0.187087 1.42773 -0.33509 2.09977 0.00472013 4.70011 -3.00272 4.8168 -0.625155 6.06904 -4.90858 2.29573 -3.16487 -0.0324662 0.892636 -4.07548 -0.407065 -3.61054 -3.94125 -1.25238 0.239585 11.0233 0.570832 -5.78213 -9.47209 1.6588 2.21515 -7.48566 2.24362 -0.675244 4.18179 0.0108184 -0.675264 4.18181 0.0109763 2.24783 -7.91702 -2.80031 -26.2939 8.10909 2.04857 -58.1502 42.0821 4.96816 16.4197 -0.729042 -23.1357 8.85489 1.42628 -3.79501 -3.18055e-015 -3.18055e-015 -4.77083e-015 -3.18055e-015 -3.18056e-015 -4.77083e-015 22.9066 16.4904 21.4135 55.5884 23.9408 -5.97934 -18.8212 17.3959 19.5533 -9.76551 0.936053 4.59322 -3.18055e-015 7.95139e-015 2.38542e-015 -3.18055e-015 4.77083e-015 2.38542e-015 -1.92929 -5.87996 -1.8672 
32.9392 95.9592 -29.2071 0.718885 -0.218743 1.13859 -0.33509 2.10347 0.00472014 4.7973 -3.01998 5.23083 -0.524596 6.24724 -5.05927 2.13541 -3.34631 -0.0308919 0.805946 -3.98842 -0.326657 -3.5001 -3.98753 -1.52363 0.126853 11.0352 0.61586 -5.61961 -9.53196 2.15467 2.19084 -7.41492 2.24326 -0.671218 4.20688 0.0216848 -0.671234 4.20689 0.0218083 2.25924 -7.90726 -2.72094 -26.3063 8.1611 1.88365 -58.4268 42.3307 5.15737 16.6128 -0.548286 -23.145 8.50841 1.48305 -3.77135 1.76556e-031 3.18055e-015 -3.18055e-015 5.29669e-031 9.54167e-015 -3.18055e-015 22.9054 16.4596 21.3614 56.1911 25.0506 -4.74369 -14.3281 16.314 15.8813 -7.24114 0.100714 5.47753 -3.18055e-015 -3.18055e-015 2.38542e-015 -3.18055e-015 0 1.59028e-015 -1.89723 -5.90483 -1.79885 
32.7845 95.9602 -29.1733 0.543464 -0.315201 0.962827 -0.303095 2.14408 0.0195205 5.07921 -2.93544 4.4205 -0.673081 6.28369 -4.09175 1.98071 -3.44851 -0.0228174 0.767042 -3.96166 -0.301361 -3.20509 -3.83037 -1.75767 -0.0518759 10.8015 0.718284 -5.53092 -9.49277 2.47325 2.14697 -7.34698 2.29207 -0.607546 4.28802 0.0504533 -0.607548 4.28803 0.0504529 2.27239 -8.10737 -2.71577 -26.3618 8.39104 1.80317 -58.4886 42.9122 5.03539 16.548 -0.640007 -22.9568 8.48746 1.41995 -3.76849 3.18055e-015 0 1.59028e-015 3.18055e-015 -3.18056e-015 -0 22.8311 16.6364 21.3272 57.2467 25.5532 -3.88221 -11.5087 15.3903 13.0819 -4.94832 -0.704495 6.37947 -4.41391e-032 -3.18055e-015 -7.95139e-016 -1.76556e-031 -6.36111e-015 -1.59028e-015 -1.97198 -5.90085 -1.77957 
32.7041 95.9383 -29.1571 0.444597 -0.376191 0.845012 -0.293207 2.1805 0.0482161 5.18992 -3.00264 4.82411 -0.573288 6.54245 -4.4621 2.08563 -3.53005 -0.0212202 0.811612 -4.09035 -0.330939 -3.07048 -3.85205 -2.22298 -0.165158 10.8806 0.801849 -5.42777 -9.60077 2.90798 2.04537 -7.27362 2.53283 -0.587652 4.36072 0.1077 -0.587637 4.36073 0.107704 2.35135 -8.25537 -2.75104 -26.3737 8.5482 1.74443 -58.6322 43.6912 4.78495 16.5023 -1.05527 -22.5535 8.51972 1.33469 -3.55949 -0 0 1.59028e-015 -3.18055e-015 0 1.59028e-015 22.7176 16.7028 21.0854 58.1739 25.977 -3.53444 -10.341 15.0953 12.2831 -5.59965 -1.901 6.75933 -1.59028e-015 0 7.95139e-016 -1.59028e-015 0 -0 -2.0771 -6.10996 -1.78135 
32.6725 95.926 -29.1562 0.383125 -0.397931 0.700326 -0.290767 2.18647 0.0699515 5.23814 -3.12341 6.15609 -0.345581 6.90601 -5.6594 2.087 -3.71218 -0.0201838 0.850662 -4.10711 -0.370402 -2.99888 -3.92757 -2.14909 -0.158047 11.008 0.782797 -5.40357 -9.64088 2.96389 2.02723 -7.2008 2.49834 -0.582146 4.37332 0.151594 -0.581947 4.37332 0.151491 2.40974 -8.24073 -2.72728 -26.372 8.57927 1.58698 -58.7837 44.1821 4.69742 16.8395 -0.630216 -22.2455 8.31136 1.25835 -3.55127 8.82781e-032 3.18055e-015 -1.59028e-015 3.18055e-015 9.54167e-015 -0 22.7494 16.5438 20.5858 58.9103 26.487 -3.82887 -10.6429 15.4096 12.5263 -8.07729 -2.94774 6.80793 0 3.18055e-015 -0 3.18055e-015 0 -7.95139e-016 -2.1288 -6.20689 -1.73445 
32.6586 95.9292 -29.1055 0.382566 -0.427635 0.649706 -0.295093 2.1901 0.0483681 5.22175 -3.02461 6.32875 -0.259643 6.84515 -5.74677 2.00596 -3.72774 -0.0194974 0.868924 -4.10126 -0.397968 -3.00289 -3.86276 -2.0789 -0.106032 10.9789 0.770833 -5.38314 -9.64288 2.97449 2.00813 -7.13481 2.47186 -0.595051 4.38004 0.108043 -0.593902 4.38005 0.108197 2.43167 -8.18518 -2.59119 -26.2629 8.6053 1.38411 -58.967 44.341 4.76603 17.0655 -0.334693 -22.2107 8.17836 1.31085 -3.48488 -6.36111e-015 0 1.59028e-015 -3.18055e-015 -3.18056e-015 -0 22.887 16.309 19.9741 58.9209 27.1966 -4.01131 -11.3754 15.4518 12.969 -10.3273 -2.5189 7.03386 -3.18055e-015 -3.18055e-015 -1.59028e-015 -6.36111e-015 -6.36111e-015 -1.59028e-015 -2.16547 -6.14353 -1.59106 
32.6177 95.9348 -29.012 0.326927 -0.548726 0.745328 -0.28943 2.20606 -0.0388307 5.33067 -2.83889 6.00258 -0.372135 6.77025 -5.45133 2.13595 -3.65891 -0.0189583 0.902023 -4.17745 -0.414097 -2.90559 -3.61592 -2.08385 -0.125985 10.8254 0.738338 -5.37036 -9.61237 2.97625 1.98344 -7.07756 2.47069 -0.57663 4.41235 -0.0666831 -0.577306 4.41233 -0.0666841 2.43849 -8.0877 -2.39381 -26.0326 8.57856 1.24191 -59.1531 44.5722 4.91422 17.0787 -0.412876 -22.2755 8.1875 1.42153 -3.54968 -3.18055e-015 0 -3.18055e-015 -3.18055e-015 0 -1.59028e-015 22.9878 16.0455 19.483 58.3032 27.8728 -4.29615 -12.1672 15.5299 14.2256 -10.2428 -0.518347 6.57943 -0 -3.18055e-015 -0 3.18055e-015 -3.18056e-015 -1.59028e-015 -2.23315 -6.01807 -1.38057 
32.5799 95.9284 -28.9155 0.27303 -0.677128 0.870734 -0.268915 2.20509 -0.103986 5.42676 -2.7747 7.10261 -0.27282 7.02623 -6.61211 1.96594 -3.92294 -0.0183707 0.817102 -4.07398 -0.320743 -2.84377 -3.36777 -2.09606 -0.135299 10.7341 0.723557 -5.36426 -9.61403 2.95211 1.9854 -7.05225 2.45982 -0.528424 4.4156 -0.197809 -0.528528 4.4156 -0.197883 2.31593 -8.0575 -2.27794 -25.8914 8.62767 1.0632 -59.203 44.9122 5.12655 17.0869 -0.418543 -22.2209 8.08464 1.344 -3.72671 -6.36111e-015 -6.36111e-015 3.18055e-015 -6.36111e-015 -6.36111e-015 1.59028e-015 23.0438 15.8337 19.0241 57.5037 28.7149 -4.05716 -12.4713 15.9611 14.6681 -8.43668 -0.0371791 6.90374 8.82781e-032 6.36111e-015 -7.95139e-016 0 6.36111e-015 -0 -2.24648 -5.76121 -1.29148 
32.5681 95.9456 -28.8387 0.304911 -0.740305 0.916881 -0.266977 2.20225 -0.12504 5.39825 -2.46934 5.18453 -0.526097 6.57707 -4.68361 1.98278 -3.71496 -0.0171695 0.841519 -4.05011 -0.351756 -2.84322 -3.16402 -2.07961 -0.135255 10.5756 0.717089 -5.40324 -9.59118 2.91856 1.98961 -7.08467 2.45905 -0.52883 4.40504 -0.240164 -0.528887 4.40505 -0.24019 2.28431 -8.08755 -2.27565 -25.9208 8.70468 0.915736 -59.0698 45.1491 5.22483 17.045 -0.380113 -22.0927 8.00313 1.36754 -3.71047 3.18055e-015 0 -0 8.82782e-032 -3.18056e-015 1.59028e-015 23.0704 15.8565 19.0015 56.9331 28.9359 -4.03756 -12.6387 16.2018 14.8857 -7.19406 -0.324046 7.42603 -3.18055e-015 -3.18055e-015 -0 -4.41391e-032 -3.18056e-015 -7.95139e-016 -2.32278 -5.63196 -1.2783 
32.5573 95.9274 -28.7846 0.301474 -0.72241 0.922169 -0.268843 2.18737 -0.151907 5.44377 -2.50119 6.1957 -0.498499 6.73751 -5.75323 2.28089 -3.67386 -0.0172243 0.919812 -4.22974 -0.38584 -2.83685 -3.20429 -1.94616 -0.10469 10.7171 0.599657 -5.41927 -9.66714 2.88252 1.99135 -7.08541 2.47244 -0.532617 4.3733 -0.293758 -0.532596 4.37331 -0.293805 2.17837 -8.12704 -2.23538 -25.8417 8.76367 0.901741 -58.9106 45.2338 5.24216 17.0011 -0.347625 -22.0162 7.93736 1.41051 -3.69878 -8.82781e-032 -3.18055e-015 -1.59028e-015 -1.76556e-031 -6.36111e-015 -1.59028e-015 23.1559 16.0032 19.3526 56.6798 28.6425 -4.3584 -12.5982 16.6592 15.1539 -7.27858 -0.841586 7.71888 3.18055e-015 -3.18055e-015 7.95139e-016 6.36111e-015 3.18056e-015 -7.95139e-016 -2.19381 -5.72486 -1.28502 
32.5717 95.9233 -28.7144 0.297638 -0.738351 0.933011 -0.274253 2.18465 -0.151979 5.42719 -2.46507 6.55508 -0.423231 6.79721 -6.15222 2.31187 -3.71521 -0.0173866 0.912871 -4.25104 -0.37195 -2.8465 -3.12955 -1.86088 -0.0619606 10.6963 0.531408 -5.42284 -9.68029 2.85231 1.98902 -7.06856 2.45933 -0.541903 4.37083 -0.29403 -0.541911 4.37083 -0.293937 2.11013 -8.24814 -2.25376 -25.8391 8.88027 0.937131 -58.625 44.9882 5.11444 16.8639 -0.446141 -22.0507 7.64827 1.50304 -3.59323 3.18055e-015 -6.36111e-015 -1.59028e-015 -0 -9.54167e-015 -0 23.1492 16.2742 19.8409 56.7285 28.0973 -4.89974 -12.8123 17.0222 15.4309 -7.92119 -1.18884 8.05299 -3.18055e-015 0 1.59028e-015 -8.82782e-032 3.18056e-015 1.59028e-015 -2.11371 -5.78621 -1.34563 
32.5978 95.91 -28.644 0.346672 -0.715297 1.00403 -0.289383 2.17817 -0.128037 5.38187 -2.53134 7.85831 -0.267751 6.98036 -7.562 2.42629 -3.77305 -0.0176478 0.922691 -4.29725 -0.391312 -2.88645 -3.11329 -1.81541 -0.0499543 10.7611 0.536752 -5.47191 -9.74536 2.70054 1.99169 -7.09637 2.47121 -0.574768 4.35695 -0.244395 -0.574606 4.35696 -0.244834 2.1473 -8.41267 -2.36311 -25.9492 8.98221 1.0945 -58.4192 44.7082 4.92828 16.8231 -0.407671 -22.0958 7.67316 1.50843 -3.60211 -0 -6.36111e-015 -0 -3.18055e-015 -9.54167e-015 -0 23.1952 16.4602 19.7843 56.6141 27.8807 -5.48303 -13.3596 17.2812 16.0054 -7.93015 -0.99899 8.49488 0 0 -0 0 0 -0 -2.14042 -5.8021 -1.42824 
32.6327 95.908 -28.584 0.417967 -0.645418 1.09144 -0.311611 2.14702 -0.132538 5.30663 -2.50142 8.16824 -0.229359 6.89993 -7.99355 2.39806 -3.79909 -0.0179991 0.854435 -4.23925 -0.316561 -2.95558 -3.1286 -1.73771 -0.0148554 10.8215 0.513466 -5.52122 -9.77916 2.54472 1.99411 -7.10813 2.48597 -0.618286 4.29473 -0.253783 -0.618296 4.29473 -0.253756 2.08943 -8.33768 -2.362 -25.8057 8.88893 1.1619 -58.5087 44.2609 4.93976 16.8968 -0.193181 -22.2541 7.82637 1.47845 -3.78144 3.18055e-015 -3.18055e-015 -3.18055e-015 -8.82782e-032 -3.18056e-015 -1.59028e-015 23.237 16.3294 19.6273 56.3467 28.1003 -5.61668 -13.9743 17.5783 16.345 -6.86713 -0.633183 9.6603 -3.18055e-015 -6.36111e-015 7.95139e-016 -3.18055e-015 -3.18056e-015 7.95139e-016 -2.07943 -5.85988 -1.4574 
